<svg width="96" height="202" viewBox="0 0 96 202" fill="none" xmlns="http://www.w3.org/2000/svg">
<g clip-path="url(#clip0_292_2478)">
<path d="M97.0196 0.00199962L99 0.0136144V-2H97.0196V0.00199962ZM96.9485 202.986L96.0294 205H99V202.986H96.9485ZM39 44.3777H41V43.7788V42H39V44.3777ZM0.051511 44.3777H-2V46.3913L-0.0196079 43.7788L0.051511 44.3777ZM0.051511 0.0136144V-2H-2V0.0136144H0.051511ZM94 0V203L99 202.986V0.0136144L97 0H94ZM96 200H39V205H96.0294L96 200ZM41 203V44.3777H39V200L41 203ZM39 42H0L-0.0196079 43.7788H39.0373L39 42ZM1.96078 43.7788V0.0136144H-2V44.3777L-0.0196079 43.7788H1.96078ZM0.051511 2.02724L97.0196 1.98077V-2H0.051511V2.02724Z" fill="#324C98"/>
</g>
<defs>
<clipPath id="clip0_292_2478">
<rect width="96" height="202" fill="white"/>
</clipPath>
</defs>
</svg>
