<svg width="96" height="202" viewBox="0 0 96 202" fill="none" xmlns="http://www.w3.org/2000/svg">
<path d="M95.192 0.399986H97.192V-1.60001H95.192V0.399986ZM95.192 202V204H97.192V202H95.192ZM38.168 202H36.168V204H38.168V202ZM38.168 44.464H40.168V42.464H38.168V44.464ZM0.728 44.464H-1.272V46.464H0.728V44.464ZM0.728 0.399986V-1.60001H-1.272V0.399986H0.728ZM93.192 0.399986V202H97.192V0.399986H93.192ZM95.192 200H38.168V204H95.192V200ZM40.168 202V44.464H36.168V202H40.168ZM38.168 42.464H0.728V46.464H38.168V42.464ZM2.728 44.464V0.399986H-1.272V44.464H2.728ZM0.728 2.39999H95.192V-1.60001H0.728V2.39999Z" fill="#324C98"/>
</svg>
