<svg width="168" height="206" viewBox="0 0 168 206" fill="none" xmlns="http://www.w3.org/2000/svg">
<path d="M167.6 160.784H169.6V158.784H167.6V160.784ZM167.6 206V208H169.6V206H167.6ZM10.64 206H8.64V208H10.64V206ZM10.64 170.288L9.27397 168.827L8.64 169.42V170.288H10.64ZM86.096 99.728L87.4621 101.189L87.4715 101.18L86.096 99.728ZM100.784 82.16L102.558 83.0827L102.566 83.0686L102.573 83.0544L100.784 82.16ZM57.872 51.632L58.8103 53.3982L58.82 53.3931L58.8297 53.3878L57.872 51.632ZM42.608 66.032L41.6337 67.7786L43.282 68.6981L44.2953 67.1057L42.608 66.032ZM0.272 42.416L-1.44076 41.3833L-2.50891 43.1549L-0.702311 44.1626L0.272 42.416ZM33.392 11.6L34.3245 13.3693H34.3245L33.392 11.6ZM124.4 7.856L123.616 9.69587L123.627 9.70039L124.4 7.856ZM152.048 29.456L150.405 30.5962L150.418 30.6154L150.432 30.6343L152.048 29.456ZM154.928 92.816L153.132 91.9357L153.129 91.9431L153.125 91.9505L154.928 92.816ZM127.856 125.648L126.506 124.172L126.499 124.179L127.856 125.648ZM89.84 160.784L88.4825 159.315L84.7294 162.784H89.84V160.784ZM165.6 160.784V206H169.6V160.784H165.6ZM167.6 204H10.64V208H167.6V204ZM12.64 206V170.288H8.64V206H12.64ZM12.006 171.749L87.462 101.189L84.73 98.2672L9.27397 168.827L12.006 171.749ZM87.4715 101.18C94.8153 94.2226 99.9064 88.1828 102.558 83.0827L99.0096 81.2373C96.6696 85.7372 91.9687 91.4094 84.7205 98.2761L87.4715 101.18ZM102.573 83.0544C105.191 77.8178 106.528 72.5215 106.528 67.184H102.528C102.528 71.8305 101.369 76.5181 98.9952 81.2656L102.573 83.0544ZM106.528 67.184C106.528 60.153 104.121 54.4618 99.1778 50.3781L96.6302 53.4619C100.519 56.6742 102.528 61.159 102.528 67.184H106.528ZM99.1778 50.3781C94.2673 46.3216 87.3071 44.448 78.608 44.448V48.448C86.8049 48.448 92.7087 50.2224 96.6302 53.4619L99.1778 50.3781ZM78.608 44.448C70.7984 44.448 63.5553 46.2538 56.9143 49.8762L58.8297 53.3878C64.8607 50.0982 71.4416 48.448 78.608 48.448V44.448ZM56.9337 49.8658C50.4603 53.3048 45.1231 58.3544 40.9207 64.9582L44.2953 67.1057C48.1569 61.0375 52.9957 56.4872 58.8103 53.3982L56.9337 49.8658ZM43.5823 64.2854L1.24631 40.6694L-0.702311 44.1626L41.6337 67.7786L43.5823 64.2854ZM1.98476 43.4487C9.6584 30.7217 20.4208 20.6969 34.3245 13.3693L32.4595 9.83068C17.9472 17.4791 6.6296 27.9983 -1.44076 41.3833L1.98476 43.4487ZM34.3245 13.3693C48.1912 6.06118 64.6581 2.36799 83.792 2.36799V-1.63201C64.1419 -1.63201 47.0088 2.1628 32.4595 9.83068L34.3245 13.3693ZM83.792 2.36799C98.9369 2.36799 112.197 4.82895 123.616 9.69584L125.184 6.01614C113.179 0.899025 99.3671 -1.63201 83.792 -1.63201V2.36799ZM123.627 9.70039C135.226 14.5645 144.121 21.5395 150.405 30.5962L153.691 28.3158C146.919 18.5565 137.382 11.1315 125.173 6.0116L123.627 9.70039ZM150.432 30.6343C156.883 39.4811 160.128 49.8129 160.128 61.712H164.128C164.128 49.0351 160.653 37.8628 153.664 28.2776L150.432 30.6343ZM160.128 61.712C160.128 72.3519 157.797 82.4187 153.132 91.9357L156.724 93.6963C161.659 83.6293 164.128 72.96 164.128 61.712H160.128ZM153.125 91.9505C148.679 101.212 139.873 111.952 126.506 124.172L129.206 127.124C142.719 114.768 151.961 103.62 156.731 93.6815L153.125 91.9505ZM126.499 124.179L88.4825 159.315L91.1975 162.253L129.213 127.117L126.499 124.179ZM89.84 162.784H167.6V158.784H89.84V162.784Z" fill="#324C98"/>
</svg>
