<svg width="168" height="207" viewBox="0 0 168 207" fill="none" xmlns="http://www.w3.org/2000/svg">
<path d="M115.184 81.04L113.719 79.6784L111.302 82.2791L114.779 82.9985L115.184 81.04ZM153.488 101.776L151.966 103.073L151.978 103.088L151.992 103.103L153.488 101.776ZM157.232 172.048L155.549 170.968L155.541 170.979L155.534 170.991L157.232 172.048ZM127.856 196.816L128.708 198.626L128.719 198.62L127.856 196.816ZM36.848 200.848L36.3629 202.788L36.3692 202.79L36.848 200.848ZM0.848 186.16L-0.952777 185.29L-1.73467 186.908L-0.209117 187.858L0.848 186.16ZM21.584 143.248L22.7119 141.596L20.7938 140.286L19.7832 142.378L21.584 143.248ZM48.08 155.632L47.5157 157.551L47.5257 157.554L48.08 155.632ZM100.784 154.48L101.854 156.17L100.784 154.48ZM54.704 119.344H52.704V121.344H54.704V119.344ZM54.704 83.344L53.2365 81.9852L52.704 82.5603V83.344H54.704ZM90.704 44.464L92.1715 45.8228L95.2815 42.464H90.704V44.464ZM11.216 44.464H9.216V46.464H11.216V44.464ZM11.216 0.399986V-1.60001H9.216V0.399986H11.216ZM156.944 0.399986H158.944V-1.60001H156.944V0.399986ZM156.944 36.112L158.409 37.4736L158.944 36.8979V36.112H156.944ZM114.779 82.9985C131.159 86.3876 143.488 93.1214 151.966 103.073L155.01 100.479C145.824 89.6945 132.617 82.6044 115.589 79.0815L114.779 82.9985ZM151.992 103.103C160.666 112.885 165.024 124.786 165.024 138.928H169.024C169.024 123.886 164.358 111.019 154.984 100.449L151.992 103.103ZM165.024 138.928C165.024 150.443 161.873 161.109 155.549 170.968L158.915 173.128C165.647 162.635 169.024 151.221 169.024 138.928H165.024ZM155.534 170.991C149.441 180.777 139.975 188.803 126.993 195.012L128.719 198.62C142.233 192.157 152.351 183.671 158.93 173.105L155.534 170.991ZM127.004 195.006C114.29 200.99 98.3777 204.032 79.184 204.032V208.032C98.7743 208.032 115.31 204.93 128.708 198.626L127.004 195.006ZM79.184 204.032C65.1399 204.032 51.1887 202.324 37.3268 198.906L36.3692 202.79C50.5393 206.284 64.8121 208.032 79.184 208.032V204.032ZM37.3331 198.908C23.6742 195.493 11.8745 190.67 1.90512 184.462L-0.209117 187.858C10.1735 194.322 22.3738 199.291 36.3629 202.788L37.3331 198.908ZM2.64878 187.03L23.3848 144.118L19.7832 142.378L-0.952777 185.29L2.64878 187.03ZM20.4561 144.9C28.5126 150.402 37.5372 154.616 47.5157 157.551L48.6443 153.713C39.0388 150.888 30.3994 146.846 22.7119 141.596L20.4561 144.9ZM47.5257 157.554C57.6751 160.481 67.6537 161.952 77.456 161.952V157.952C68.0583 157.952 58.4529 156.543 48.6343 153.71L47.5257 157.554ZM77.456 161.952C87.47 161.952 95.6632 160.091 101.854 156.17L99.7139 152.79C94.3848 156.165 87.026 157.952 77.456 157.952V161.952ZM101.854 156.17C108.183 152.161 111.424 146.345 111.424 138.928H107.424C107.424 144.951 104.905 149.503 99.7139 152.79L101.854 156.17ZM111.424 138.928C111.424 131.775 108.555 126.214 102.793 122.552C97.1843 118.988 89.0274 117.344 78.608 117.344V121.344C88.7326 121.344 95.9837 122.964 100.647 125.928C105.157 128.794 107.424 133.025 107.424 138.928H111.424ZM78.608 117.344H54.704V121.344H78.608V117.344ZM56.704 119.344V83.344H52.704V119.344H56.704ZM56.1715 84.7028L92.1715 45.8228L89.2365 43.1052L53.2365 81.9852L56.1715 84.7028ZM90.704 42.464H11.216V46.464H90.704V42.464ZM13.216 44.464V0.399986H9.216V44.464H13.216ZM11.216 2.39999H156.944V-1.60001H11.216V2.39999ZM154.944 0.399986V36.112H158.944V0.399986H154.944ZM155.479 34.7504L113.719 79.6784L116.649 82.4016L158.409 37.4736L155.479 34.7504Z" fill="#324C98"/>
</svg>
