<svg width="193" height="202" viewBox="0 0 193 202" fill="none" xmlns="http://www.w3.org/2000/svg">
<path d="M192.872 163.408V165.408H194.872V163.408H192.872ZM162.92 163.408V161.408H160.92V163.408H162.92ZM162.92 202V204H164.92V202H162.92ZM107.336 202H105.336V204H107.336V202ZM107.336 163.408H109.336V161.408H107.336V163.408ZM0.776 163.408H-1.224V165.408H0.776V163.408ZM0.776 126.256L-0.848196 125.089L-1.224 125.612V126.256H0.776ZM91.208 0.399986V-1.60001H90.1823L89.5838 -0.767059L91.208 0.399986ZM150.248 0.399986L151.889 1.54341L154.079 -1.60001H150.248V0.399986ZM68.168 118.192L66.5271 117.049L64.3367 120.192H68.168V118.192ZM109.064 118.192V120.192H111.064V118.192H109.064ZM109.064 83.92V81.92H107.064V83.92H109.064ZM162.92 83.92H164.92V81.92H162.92V83.92ZM162.92 118.192H160.92V120.192H162.92V118.192ZM192.872 118.192H194.872V116.192H192.872V118.192ZM192.872 161.408H162.92V165.408H192.872V161.408ZM160.92 163.408V202H164.92V163.408H160.92ZM162.92 200H107.336V204H162.92V200ZM109.336 202V163.408H105.336V202H109.336ZM107.336 161.408H0.776V165.408H107.336V161.408ZM2.776 163.408V126.256H-1.224V163.408H2.776ZM2.4002 127.423L92.8322 1.56703L89.5838 -0.767059L-0.848196 125.089L2.4002 127.423ZM91.208 2.39999H150.248V-1.60001H91.208V2.39999ZM148.607 -0.743439L66.5271 117.049L69.8089 119.335L151.889 1.54341L148.607 -0.743439ZM68.168 120.192H109.064V116.192H68.168V120.192ZM111.064 118.192V83.92H107.064V118.192H111.064ZM109.064 85.92H162.92V81.92H109.064V85.92ZM160.92 83.92V118.192H164.92V83.92H160.92ZM162.92 120.192H192.872V116.192H162.92V120.192ZM190.872 118.192V163.408H194.872V118.192H190.872Z" fill="#324C98"/>
</svg>
