<svg width="331" height="509" viewBox="0 0 331 509" fill="none" xmlns="http://www.w3.org/2000/svg">
<path d="M160 461L166 467L172 461" stroke="#4E70D1" stroke-width="1.77848" stroke-linecap="round" stroke-linejoin="round"/>
<path d="M80.5623 187.839V153.239C80.5623 147.968 85.0804 143.694 90.6539 143.694H155.408C160.981 143.694 165.5 139.421 165.5 134.149V99.5493" stroke="#4E70D1" stroke-width="1.77848" stroke-linecap="round"/>
<path d="M80.3857 187.044V184.658" stroke="#4E70D1" stroke-width="1.77848" stroke-linecap="round"/>
<path d="M87.1134 181.476L80.3857 187.839L73.658 181.476" stroke="#4E70D1" stroke-width="1.77848" stroke-linecap="round" stroke-linejoin="round"/>
<path d="M166 467L165.5 138.382" stroke="#4E70D1" stroke-width="1.77848" stroke-linecap="round"/>
<path d="M250.437 187.839V153.239C250.437 147.968 245.92 143.694 240.346 143.694H175.592C170.019 143.694 165.5 139.421 165.5 134.149V99.5493" stroke="#4E70D1" stroke-width="1.77848" stroke-linecap="round"/>
<path d="M250.614 187.044V184.658" stroke="#4E70D1" stroke-width="1.77848" stroke-linecap="round"/>
<path d="M243.886 181.476L250.614 187.839L257.342 181.476" stroke="#4E70D1" stroke-width="1.77848" stroke-linecap="round" stroke-linejoin="round"/>
<path opacity="0.4" d="M182.319 99.2864C182.319 90.5007 174.789 83.3784 165.5 83.3784C156.211 83.3784 148.68 90.5007 148.68 99.2864C148.68 108.072 156.211 115.194 165.5 115.194C174.789 115.194 182.319 108.072 182.319 99.2864Z" fill="#4E70D1"/>
<path d="M181.478 99.2864C181.478 90.94 174.324 84.1738 165.5 84.1738C156.675 84.1738 149.521 90.94 149.521 99.2864C149.521 107.633 156.675 114.399 165.5 114.399C174.324 114.399 181.478 107.633 181.478 99.2864Z" stroke="#4E70D1" stroke-width="1.77848"/>
<path d="M165.5 102.866C167.59 102.866 169.284 101.263 169.284 99.2863C169.284 97.3095 167.59 95.707 165.5 95.707C163.41 95.707 161.716 97.3095 161.716 99.2863C161.716 101.263 163.41 102.866 165.5 102.866Z" fill="white" stroke="#4E70D1" stroke-width="2.66772"/>
</svg>
