<svg width="52" height="52" viewBox="0 0 52 52" fill="none" xmlns="http://www.w3.org/2000/svg">
<g clip-path="url(#clip0_1_951)">
<circle cx="25.9995" cy="26.3693" r="25.601" fill="white"/>
<path d="M38.7099 31.8897C38.7099 32.6189 38.4889 33.3317 38.0749 33.938C37.6608 34.5442 37.0723 35.0168 36.3838 35.2958C35.6952 35.5748 34.9376 35.6479 34.2066 35.5056C33.4756 35.3634 32.8042 35.0122 32.2772 34.4966C31.7502 33.981 31.3913 33.3241 31.2459 32.609C31.1005 31.8938 31.1752 31.1526 31.4604 30.4789C31.7456 29.8052 32.2285 29.2295 32.8482 28.8244C33.4679 28.4193 34.1965 28.203 34.9417 28.203C35.9408 28.2041 36.8986 28.5928 37.6051 29.284C38.3115 29.9752 38.7089 30.9123 38.7099 31.8897ZM32.5983 36.7203V40.5776C32.5983 40.6744 32.6241 40.7695 32.6731 40.8536C32.7222 40.9376 32.7928 41.0076 32.878 41.0568C32.9632 41.1059 33.0601 41.1324 33.159 41.1337C33.2579 41.1349 33.3554 41.1109 33.4419 41.064L34.5293 40.4748C34.6556 40.4064 34.7976 40.3705 34.942 40.3705C35.0864 40.3705 35.2284 40.4064 35.3547 40.4748L36.4415 41.064C36.528 41.1108 36.6255 41.1347 36.7243 41.1334C36.8231 41.132 36.9199 41.1055 37.005 41.0564C37.0902 41.0073 37.1607 40.9373 37.2098 40.8533C37.2588 40.7694 37.2846 40.6743 37.2846 40.5776V36.7203C36.5536 37.0645 35.7527 37.2432 34.9414 37.2432C34.1302 37.2432 33.3293 37.0645 32.5983 36.7203ZM41.9294 15.3327V36.648C41.9294 36.7955 41.8695 36.9368 41.763 37.0411C41.6564 37.1453 41.5119 37.2039 41.3613 37.2039H38.9866V35.4808C39.905 34.5011 40.4139 33.2197 40.4125 31.8903C40.4148 31.0201 40.2001 30.1625 39.7871 29.3918C39.3741 28.6211 38.7753 27.9605 38.0425 27.4672C37.3097 26.974 36.4651 26.6631 35.5817 26.5613C34.6984 26.4595 33.803 26.5699 32.9732 26.883C32.1433 27.1962 31.404 27.7025 30.8193 28.3583C30.2345 29.014 29.8221 29.7994 29.6175 30.6462C29.413 31.4931 29.4226 32.376 29.6456 33.2185C29.8685 34.0609 30.298 34.8374 30.8969 35.4808V37.2039H10.6384C10.4877 37.2039 10.3432 37.1453 10.2367 37.0411C10.1302 36.9368 10.0703 36.7955 10.0703 36.648V15.3327C10.0703 15.1853 10.1302 15.0439 10.2367 14.9396C10.3432 14.8354 10.4877 14.7769 10.6384 14.7769H41.3613C41.5119 14.7769 41.6564 14.8354 41.763 14.9396C41.8695 15.0439 41.9294 15.1853 41.9294 15.3327ZM19.9496 19.2623C19.9494 19.3718 19.9714 19.4803 20.0141 19.5815C20.0569 19.6827 20.1197 19.7747 20.1988 19.8521C20.278 19.9296 20.372 19.991 20.4754 20.0328C20.5789 20.0747 20.6898 20.0961 20.8017 20.096H31.198C31.424 20.096 31.6407 20.0081 31.8005 19.8518C31.9603 19.6954 32.0501 19.4834 32.0501 19.2623C32.0501 19.0411 31.9603 18.8291 31.8005 18.6727C31.6407 18.5164 31.424 18.4285 31.198 18.4285H20.8017C20.6898 18.4284 20.5789 18.4499 20.4754 18.4917C20.372 18.5336 20.278 18.595 20.1988 18.6724C20.1197 18.7498 20.0569 18.8418 20.0141 18.943C19.9714 19.0443 19.9494 19.1527 19.9496 19.2623ZM27.6701 30.623C27.6702 30.5135 27.6483 30.405 27.6055 30.3038C27.5627 30.2026 27.5 30.1106 27.4208 30.0332C27.3416 29.9557 27.2476 29.8943 27.1442 29.8525C27.0407 29.8106 26.9298 29.7892 26.8179 29.7893H14.0868C13.8608 29.7893 13.644 29.8772 13.4842 30.0335C13.3244 30.1899 13.2346 30.4019 13.2346 30.623C13.2346 30.8442 13.3244 31.0562 13.4842 31.2126C13.644 31.3689 13.8608 31.4568 14.0868 31.4568H26.8179C26.9298 31.4569 27.0407 31.4354 27.1442 31.3936C27.2476 31.3518 27.3416 31.2903 27.4208 31.2129C27.5 31.1355 27.5627 31.0435 27.6055 30.9423C27.6483 30.8411 27.6702 30.7326 27.6701 30.623ZM28.8347 26.838C28.8348 26.7284 28.8129 26.62 28.7701 26.5187C28.7273 26.4175 28.6646 26.3256 28.5854 26.2481C28.5062 26.1707 28.4122 26.1093 28.3088 26.0674C28.2053 26.0256 28.0945 26.0041 27.9825 26.0043H14.0868C13.8608 26.0043 13.644 26.0921 13.4842 26.2484C13.3244 26.4048 13.2346 26.6169 13.2346 26.838C13.2346 27.0591 13.3244 27.2711 13.4842 27.4275C13.644 27.5839 13.8608 27.6717 14.0868 27.6717H27.9825C28.0945 27.6718 28.2053 27.6504 28.3088 27.6085C28.4122 27.5667 28.5062 27.5053 28.5854 27.4278C28.6646 27.3504 28.7273 27.2584 28.7701 27.1572C28.8129 27.056 28.8348 26.9475 28.8347 26.838ZM38.765 23.0473C38.7644 22.8264 38.6745 22.6147 38.5148 22.4585C38.3551 22.3022 38.1387 22.2142 37.9129 22.2136H14.0868C13.8608 22.2136 13.644 22.3015 13.4842 22.4578C13.3244 22.6142 13.2346 22.8262 13.2346 23.0473C13.2346 23.2684 13.3244 23.4805 13.4842 23.6369C13.644 23.7932 13.8608 23.8811 14.0868 23.8811H37.9129C38.0248 23.8812 38.1357 23.8597 38.2392 23.8179C38.3426 23.776 38.4366 23.7146 38.5158 23.6372C38.5949 23.5597 38.6577 23.4678 38.7005 23.3666C38.7433 23.2653 38.7652 23.1569 38.765 23.0473Z" fill="#8971EA"/>
</g>
<defs>
<clipPath id="clip0_1_951">
<rect width="52" height="52" fill="white"/>
</clipPath>
</defs>
</svg>
