<svg width="52" height="52" viewBox="0 0 52 52" fill="none" xmlns="http://www.w3.org/2000/svg">
<g clip-path="url(#clip0_1_955)">
<path fill-rule="evenodd" clip-rule="evenodd" d="M52 26C52 40.4083 40.3 52 26 52C11.5917 52 0 40.3 0 26C0 11.7 11.5917 0 26 0C40.3 0 52 11.7 52 26Z" fill="white"/>
<path d="M28.275 32.4998H22.6417C22.3167 32.4998 22.1 32.2832 22.1 31.9582C22.1 31.6332 22.3167 31.4165 22.6417 31.4165H28.275C28.6 31.4165 28.8167 31.6332 28.8167 31.9582C28.8167 32.2832 28.6 32.4998 28.275 32.4998ZM26.1083 34.6665H22.6417C22.3167 34.6665 22.1 34.4498 22.1 34.1248C22.1 33.7998 22.3167 33.5832 22.6417 33.5832H26.1083C26.4333 33.5832 26.65 33.7998 26.65 34.1248C26.65 34.4498 26.4333 34.6665 26.1083 34.6665ZM16.25 34.6665C15.3833 34.6665 14.625 33.9082 14.625 33.0415V26.5415C14.625 25.6748 15.3833 24.9165 16.25 24.9165C17.1167 24.9165 17.875 25.6748 17.875 26.5415V33.0415C17.875 33.9082 17.1167 34.6665 16.25 34.6665ZM16.25 25.9998C15.925 25.9998 15.7083 26.2165 15.7083 26.5415V33.0415C15.7083 33.3665 15.925 33.5832 16.25 33.5832C16.575 33.5832 16.7917 33.3665 16.7917 33.0415V26.5415C16.7917 26.2165 16.575 25.9998 16.25 25.9998Z" fill="#5E79DA"/>
<path d="M15.1667 33.5832H13C12.1333 33.5832 11.375 32.8248 11.375 31.9582V27.6248C11.375 26.7582 12.1333 25.9998 13 25.9998H15.1667C15.4917 25.9998 15.7083 26.2165 15.7083 26.5415V33.0415C15.7083 33.3665 15.4917 33.5832 15.1667 33.5832ZM13 27.0832C12.675 27.0832 12.4583 27.2998 12.4583 27.6248V31.9582C12.4583 32.2832 12.675 32.4998 13 32.4998H14.625V27.0832H13ZM34.6667 34.6665C33.8 34.6665 33.0417 33.9082 33.0417 33.0415V26.5415C33.0417 25.6748 33.8 24.9165 34.6667 24.9165C35.5333 24.9165 36.2917 25.6748 36.2917 26.5415V33.0415C36.2917 33.9082 35.5333 34.6665 34.6667 34.6665ZM34.6667 25.9998C34.3417 25.9998 34.125 26.2165 34.125 26.5415V33.0415C34.125 33.3665 34.3417 33.5832 34.6667 33.5832C34.9917 33.5832 35.2083 33.3665 35.2083 33.0415V26.5415C35.2083 26.2165 34.9917 25.9998 34.6667 25.9998Z" fill="#5E79DA"/>
<path d="M37.9173 33.5833H35.7507C35.4257 33.5833 35.209 33.3667 35.209 33.0417V26.5417C35.209 26.2167 35.4257 26 35.7507 26H37.9173C38.784 26 39.5423 26.7583 39.5423 27.625V31.9583C39.5423 32.825 38.784 33.5833 37.9173 33.5833ZM36.2923 32.5H37.9173C38.2423 32.5 38.459 32.2833 38.459 31.9583V27.625C38.459 27.3 38.2423 27.0833 37.9173 27.0833H36.2923V32.5ZM28.1673 42.25H27.084C26.2173 42.25 25.459 41.4917 25.459 40.625C25.459 39.7583 26.2173 39 27.084 39H28.1673C29.034 39 29.7923 39.7583 29.7923 40.625C29.7923 41.4917 29.034 42.25 28.1673 42.25ZM27.084 40.0833C26.759 40.0833 26.5423 40.3 26.5423 40.625C26.5423 40.95 26.759 41.1667 27.084 41.1667H28.1673C28.4923 41.1667 28.709 40.95 28.709 40.625C28.709 40.3 28.4923 40.0833 28.1673 40.0833H27.084Z" fill="#5E79DA"/>
<path d="M31.4163 41.1667H29.2496C28.9246 41.1667 28.7079 40.95 28.7079 40.625C28.7079 40.3 28.9246 40.0833 29.2496 40.0833H31.4163C34.6663 40.0833 37.3746 37.375 37.3746 34.125V33.0417C37.3746 32.7167 37.5913 32.5 37.9163 32.5C38.2413 32.5 38.4579 32.7167 38.4579 33.0417V34.125C38.4579 38.025 35.3163 41.1667 31.4163 41.1667ZM36.7246 23.2917C35.8579 23.2917 35.2079 22.6417 35.0996 21.8833C34.6663 16.7917 30.4413 13 25.3496 13C20.2579 13 16.1413 16.7917 15.5996 21.8833C15.4913 22.6417 14.8413 23.2917 13.9746 23.2917C13.5413 23.2917 13.1079 23.075 12.7829 22.75C12.4579 22.425 12.3496 21.9917 12.3496 21.45C13.1079 14.8417 18.7413 9.75 25.4579 9.75C32.1746 9.75 37.8079 14.8417 38.3496 21.5583C38.3496 21.9917 38.2413 22.425 37.9163 22.8583C37.6996 23.075 37.2663 23.2917 36.7246 23.2917ZM25.4579 11.9167C31.0913 11.9167 35.7496 16.1417 36.2913 21.775C36.2913 21.9917 36.5079 22.2083 36.8329 22.2083C36.9413 22.2083 37.1579 22.1 37.2663 21.9917C37.3746 21.8833 37.3746 21.775 37.3746 21.5583C36.8329 15.3833 31.7413 10.8333 25.4579 10.8333C19.1746 10.8333 14.1913 15.4917 13.5413 21.5583C13.5413 21.6667 13.5413 21.8833 13.6496 21.9917C13.9746 22.3167 14.5163 22.1 14.6246 21.6667C15.1663 16.1417 19.8246 11.9167 25.4579 11.9167Z" fill="#5E79DA"/>
<path d="M14.0827 27.0833C13.7577 27.0833 13.541 26.8667 13.541 26.5417V23.2917C13.541 22.9667 13.7577 22.75 14.0827 22.75C14.4077 22.75 14.6243 22.9667 14.6243 23.2917V26.5417C14.6243 26.8667 14.4077 27.0833 14.0827 27.0833ZM36.8327 27.0833C36.5077 27.0833 36.291 26.8667 36.291 26.5417V23.2917C36.291 22.9667 36.5077 22.75 36.8327 22.75C37.1577 22.75 37.3743 22.9667 37.3743 23.2917V26.5417C37.3743 26.8667 37.1577 27.0833 36.8327 27.0833ZM22.7493 39C22.641 39 22.5327 39 22.5327 38.8917C22.316 38.7833 22.2077 38.5667 22.2077 38.4583V36.8333H21.666C20.7993 36.8333 20.041 36.075 20.041 35.2083V30.875C20.041 30.0083 20.7993 29.25 21.666 29.25H29.2493C30.116 29.25 30.8743 30.0083 30.8743 30.875V35.2083C30.8743 36.075 30.116 36.8333 29.2493 36.8333H26.216L23.0743 38.8917C22.966 39 22.8577 39 22.7493 39ZM21.666 30.3333C21.341 30.3333 21.1243 30.55 21.1243 30.875V35.2083C21.1243 35.5333 21.341 35.75 21.666 35.75H22.7493C23.0743 35.75 23.291 35.9667 23.291 36.2917V37.4833L25.6743 35.8583C25.7827 35.75 25.891 35.75 25.9993 35.75H29.2493C29.5743 35.75 29.791 35.5333 29.791 35.2083V30.875C29.791 30.55 29.5743 30.3333 29.2493 30.3333H21.666Z" fill="#5E79DA"/>
</g>
<defs>
<clipPath id="clip0_1_955">
<rect width="52" height="52" fill="white"/>
</clipPath>
</defs>
</svg>
