<svg width="52" height="52" viewBox="0 0 52 52" fill="none" xmlns="http://www.w3.org/2000/svg">
<g clip-path="url(#clip0_1_963)">
<path d="M26 7.76419e-06C11.64 7.76419e-06 0 11.64 0 26C0 40.36 11.64 52 26 52C40.36 52 52 40.36 52 26L51.562 22.625L51.124 19.25C49.6393 13.7232 46.3722 8.84089 41.8296 5.36034C37.287 1.87979 31.7227 -0.00441382 26 7.76419e-06ZM12 12H40V32H12V12ZM16 14C14.91 14 14 14.91 14 16V28C14 29.09 14.91 30 16 30H36C37.09 30 38 29.09 38 28V16C38 14.91 37.09 14 36 14H16ZM16 16H36V28H16V16ZM22 34H24V38H28V34H30V38H34V40H18V38H22V34Z" fill="white"/>
</g>
<defs>
<clipPath id="clip0_1_963">
<rect width="52" height="52" fill="white"/>
</clipPath>
</defs>
</svg>
