<svg width="52" height="52" viewBox="0 0 52 52" fill="none" xmlns="http://www.w3.org/2000/svg">
<g clip-path="url(#clip0_1_966)">
<circle cx="25.9775" cy="25.9775" r="25.9775" fill="white"/>
<path d="M10.7051 40.5296H41.2933V17.8943H10.7051V40.5296ZM22.8129 38.3884H15.2296V36.7061H22.8129V38.3884ZM20.009 30.0531H15.9306V28.3708H20.0727L20.009 30.0531ZM23.96 34.259H21.7933V32.5766H23.96V34.259ZM23.96 30.0531H21.7933V28.3708H23.96V30.0531ZM26.7639 38.3884H24.5972V36.7061H26.7639V38.3884ZM28.0384 34.259H25.8717V32.5766H28.0384V34.259ZM36.0678 32.5766V34.259H29.8864V32.5766H36.0678ZM31.9894 30.0531V28.3708H36.1315V30.0531H31.9894ZM32.1168 38.3884H29.9502V36.7061H32.1168V38.3884ZM38.1708 38.3884H33.9649V36.7061H38.1708V38.3884ZM38.1708 25.8472H31.9894V24.1649H38.1708V25.8472ZM29.1855 20.0355H36.7688V21.7178H29.1855V20.0355ZM28.0384 24.2413H30.2051V25.9237H28.0384V24.2413ZM28.0384 28.3708H30.2051V30.0531H28.0384V28.3708ZM25.2345 20.0355H27.4012V21.7178H25.2345V20.0355ZM23.96 24.2413H26.1266V25.9237H23.96V24.2413ZM22.1119 25.8472H15.9306V24.1649H22.1119V25.8472ZM19.8815 20.0355H22.0482V21.7178H19.8815V20.0355ZM13.8276 20.0355H18.0335V21.7178H13.8276V20.0355ZM13.8276 32.5766H20.009V34.259H13.8276V32.5766ZM10.7051 10.7061V16.2884H41.2933V10.7061H10.7051ZM13.6365 14.3002H12.1708V12.6178H13.6365V14.3002ZM16.759 14.3002H15.2933V12.6178H16.759V14.3002ZM19.8815 14.3002H18.4159V12.6178H19.8815V14.3002Z" fill="#324C98"/>
</g>
<defs>
<clipPath id="clip0_1_966">
<rect width="52" height="52" fill="white"/>
</clipPath>
</defs>
</svg>
