<svg width="1598" height="1076" viewBox="0 0 1598 1076" fill="none" xmlns="http://www.w3.org/2000/svg">
<path d="M-41.9883 302.769L1201.58 65.3966C1390.64 29.3092 1563.34 154.868 1587.32 345.839L1640.99 773.286L397.421 1010.66C208.363 1046.75 35.6624 921.187 11.6833 730.215L-41.9883 302.769Z" fill="#8BB9E4" fill-opacity="0.6"/>
<path d="M-24.6367 216.493L1222.37 107.11C1414.11 90.2921 1580.3 232.316 1593.56 424.329L1623.64 859.56L376.632 968.942C184.897 985.76 18.7085 843.736 5.43957 651.723L-24.6367 216.493Z" fill="#6C31E9" fill-opacity="0.6"/>
<path d="M0 145.06H1249.5C1441.97 145.06 1598 301.089 1598 493.56V930.331H348.5C156.029 930.331 0 774.302 0 581.831V145.06Z" fill="url(#paint0_linear_1_223)"/>
<defs>
<linearGradient id="paint0_linear_1_223" x1="1598" y1="930.355" x2="45.8781" y2="91.9957" gradientUnits="userSpaceOnUse">
<stop stop-color="#5461A2"/>
<stop offset="1" stop-color="#6777C7"/>
</linearGradient>
</defs>
</svg>
