<svg width="1598" height="276" viewBox="0 0 1598 276" fill="none" xmlns="http://www.w3.org/2000/svg">
<path d="M174.5 221.6V271H-31.46V4.99998H169.56V54.4H29.72V112.16H153.22V160.04H29.72V221.6H174.5ZM467.441 4.99998V271H416.901L284.281 109.5V271H223.481V4.99998H274.401L406.641 166.5V4.99998H467.441ZM657.676 275.56C630.569 275.56 605.996 269.733 583.956 258.08C562.169 246.173 544.943 229.833 532.276 209.06C519.863 188.033 513.656 164.347 513.656 138C513.656 111.653 519.863 88.0933 532.276 67.32C544.943 46.2933 562.169 29.9533 583.956 18.3C605.996 6.39333 630.696 0.439995 658.056 0.439995C681.109 0.439995 701.883 4.49333 720.376 12.6C739.123 20.7067 754.829 32.36 767.496 47.56L727.976 84.04C709.989 63.2667 687.696 52.88 661.096 52.88C644.629 52.88 629.936 56.5533 617.016 63.9C604.096 70.9933 593.963 81 586.616 93.92C579.523 106.84 575.976 121.533 575.976 138C575.976 154.467 579.523 169.16 586.616 182.08C593.963 195 604.096 205.133 617.016 212.48C629.936 219.573 644.629 223.12 661.096 223.12C687.696 223.12 709.989 212.607 727.976 191.58L767.496 228.06C754.829 243.513 739.123 255.293 720.376 263.4C701.629 271.507 680.729 275.56 657.676 275.56ZM932.321 275.56C904.708 275.56 879.754 269.607 857.461 257.7C835.421 245.793 818.068 229.453 805.401 208.68C792.988 187.653 786.781 164.093 786.781 138C786.781 111.907 792.988 88.4733 805.401 67.7C818.068 46.6733 835.421 30.2067 857.461 18.3C879.754 6.39333 904.708 0.439995 932.321 0.439995C959.934 0.439995 984.761 6.39333 1006.8 18.3C1028.84 30.2067 1046.19 46.6733 1058.86 67.7C1071.53 88.4733 1077.86 111.907 1077.86 138C1077.86 164.093 1071.53 187.653 1058.86 208.68C1046.19 229.453 1028.84 245.793 1006.8 257.7C984.761 269.607 959.934 275.56 932.321 275.56ZM932.321 223.12C948.028 223.12 962.214 219.573 974.881 212.48C987.548 205.133 997.428 195 1004.52 182.08C1011.87 169.16 1015.54 154.467 1015.54 138C1015.54 121.533 1011.87 106.84 1004.52 93.92C997.428 81 987.548 70.9933 974.881 63.9C962.214 56.5533 948.028 52.88 932.321 52.88C916.614 52.88 902.428 56.5533 889.761 63.9C877.094 70.9933 867.088 81 859.741 93.92C852.648 106.84 849.101 121.533 849.101 138C849.101 154.467 852.648 169.16 859.741 182.08C867.088 195 877.094 205.133 889.761 212.48C902.428 219.573 916.614 223.12 932.321 223.12ZM1124.13 4.99998H1244.97C1273.85 4.99998 1299.31 10.5733 1321.35 21.72C1343.64 32.6133 1360.87 48.0667 1373.03 68.08C1385.44 88.0933 1391.65 111.4 1391.65 138C1391.65 164.6 1385.44 187.907 1373.03 207.92C1360.87 227.933 1343.64 243.513 1321.35 254.66C1299.31 265.553 1273.85 271 1244.97 271H1124.13V4.99998ZM1241.93 220.46C1268.53 220.46 1289.68 213.113 1305.39 198.42C1321.35 183.473 1329.33 163.333 1329.33 138C1329.33 112.667 1321.35 92.6533 1305.39 77.96C1289.68 63.0133 1268.53 55.54 1241.93 55.54H1185.69V220.46H1241.93ZM1644.03 221.6V271H1438.07V4.99998H1639.09V54.4H1499.25V112.16H1622.75V160.04H1499.25V221.6H1644.03Z" fill="#324C98" fill-opacity="0.05"/>
</svg>
