<svg width="455" height="484" viewBox="0 0 455 484" fill="none" xmlns="http://www.w3.org/2000/svg">
<g opacity="0.15">
<path d="M216.621 190.122L276.801 175.01L168.504 36.4296L32.9402 362.578L389.862 319.685L279.719 178.744L255.097 237.982L285.54 275.848L286.114 276.562L285.203 276.659L123.17 293.867L122.332 293.956L122.656 293.178L182.593 148.977L182.916 148.199L183.444 148.855L216.621 190.122Z" fill="#E8EEFF" stroke="black"/>
<path d="M217.012 160.467L277.192 145.355L168.894 6.77438L33.3309 332.923L390.253 290.03L280.11 149.088L255.488 208.326L285.931 246.193L286.505 246.907L285.594 247.003L123.561 264.211L122.723 264.3L123.046 263.522L182.983 119.321L183.307 118.543L183.835 119.2L217.012 160.467Z" fill="#324C98" stroke="black"/>
<path d="M276.727 144.966L217.662 160.172L216.461 190.128L268.845 177.002L276.727 144.966Z" fill="#EFB7B9" stroke="black"/>
<path d="M33.2946 332.347L20.0748 364.146L75.9596 357.476L89.1421 325.76L33.2946 332.347Z" fill="#EFB7B9" stroke="black"/>
<path d="M347.995 294.575L348.127 324.634L389.975 319.682L389.846 289.623L347.995 294.575Z" fill="#EFB7B9" stroke="black"/>
</g>
</svg>
