<svg width="404" height="181" viewBox="0 0 404 181" fill="none" xmlns="http://www.w3.org/2000/svg">
<g clip-path="url(#clip0_567_4251)">
<path fill-rule="evenodd" clip-rule="evenodd" d="M-103.643 45.1244L-71.8839 33.5893C-39.3074 22.14 24.2108 -0.929458 77.3877 9.58617C130.565 20.1012 171.765 64.0311 229.724 60.19C287.684 56.3483 360.766 4.56429 418.726 0.723205C476.685 -3.11844 517.886 40.8114 564.686 70.4697C611.487 100.127 662.252 115.343 718.617 116.288C774.982 117.232 835.312 103.733 866.295 97.0698L896.46 90.3207L848.637 233.891L821.66 231.068C793.866 228.161 739.912 222.516 685.141 216.787C630.37 211.057 576.416 205.413 521.645 199.683C466.874 193.953 412.921 188.309 358.15 182.578C303.379 176.849 249.425 171.204 194.654 165.475C139.883 159.745 85.9298 154.1 31.1588 148.371C-23.6123 142.641 -77.5658 136.997 -105.36 134.089L-132.337 131.266L-103.643 45.1244Z" fill="#8BB9E4" fill-opacity="0.6"/>
<path fill-rule="evenodd" clip-rule="evenodd" d="M-73.1336 38.9465L-40.1231 28.5738C-6.30649 18.3154 59.7146 -2.43005 111.583 9.9697C163.45 22.37 199.553 67.6869 257.832 65.9305C316.111 64.1747 394.954 15.1166 453.233 13.3602C511.512 11.6045 547.615 56.9207 590.935 88.1958C634.254 119.471 683.179 136.475 739.321 139.438C795.463 142.401 857.21 131.092 888.889 125.553L919.763 119.899L855.652 261.461L829.052 257.678C801.647 253.779 748.448 246.213 694.443 238.531C640.438 230.85 587.239 223.283 533.234 215.602C479.23 207.921 426.031 200.354 372.026 192.672C318.021 184.991 264.822 177.424 210.817 169.743C156.812 162.061 103.613 154.495 49.6083 146.813C-4.3966 139.132 -57.5955 131.565 -85.0009 127.667L-111.6 123.884L-73.1336 38.9465Z" fill="#6C31E9" fill-opacity="0.6"/>
<path fill-rule="evenodd" clip-rule="evenodd" d="M-79.7446 58.2633L-47.8095 46.8824C-15.0583 35.5906 48.8119 12.8282 101.825 23.5999C154.839 34.3717 195.363 78.4982 253.379 74.9367C311.395 71.3748 385.271 19.9455 443.287 16.384C501.303 12.822 541.827 56.9491 588.171 86.8316C634.514 116.715 685.044 132.175 741.392 133.391C797.741 134.607 858.276 121.4 889.359 114.886L919.627 108.283L869.6 251.617L842.668 248.665C814.919 245.623 761.054 239.718 706.373 233.725C651.692 227.731 597.828 221.827 543.147 215.832C488.466 209.839 434.601 203.934 379.92 197.941C325.239 191.946 270.681 194.494 216 188.5C162.307 197.952 108 192.5 52 185C4.5 205.5 -51.996 174.041 -79.7446 171L-109.761 144.264L-79.7446 58.2633Z" fill="#324C98"/>
</g>
<defs>
<clipPath id="clip0_567_4251">
<rect width="404" height="181" fill="white"/>
</clipPath>
</defs>
</svg>
