<svg width="22" height="18" viewBox="0 0 22 18" fill="none" xmlns="http://www.w3.org/2000/svg">
<path d="M19.2801 0.547852H2.2566C1.08623 0.547852 0.139302 1.50542 0.139302 2.67579L0.128662 15.4434C0.128662 16.6138 1.08623 17.5714 2.2566 17.5714H19.2801C20.4505 17.5714 21.408 16.6138 21.408 15.4434V2.67579C21.408 1.50542 20.4505 0.547852 19.2801 0.547852ZM18.8545 5.06972L11.3323 9.77246C10.9918 9.98525 10.5449 9.98525 10.2044 9.77246L2.68219 5.06972C2.41619 4.89948 2.2566 4.61221 2.2566 4.30366C2.2566 3.5908 3.0333 3.16521 3.63976 3.5376L10.7683 7.99563L17.8969 3.5376C18.5034 3.16521 19.2801 3.5908 19.2801 4.30366C19.2801 4.61221 19.1205 4.89948 18.8545 5.06972Z" fill="#324C98"/>
</svg>
