<svg width="1598" height="1234" viewBox="0 0 1598 1234" fill="none" xmlns="http://www.w3.org/2000/svg">
<path fill-rule="evenodd" clip-rule="evenodd" d="M1789.37 865.815L1676.71 861.721C1562.31 855.856 1336.99 847.667 1239.36 710.976C1141.73 574.285 1175.26 312.633 1022.16 230.255C869.062 147.878 532.806 248.316 379.709 165.938C226.611 83.5611 260.138 -178.091 236.465 -387.2C212.791 -596.309 135.383 -749.335 0.77494 -849.816C-133.834 -950.298 -322.176 -994.696 -418.081 -1018.67L-512.252 -1040.86L42.4223 -1584L99.6155 -1525.59C158.542 -1465.41 272.928 -1348.6 389.047 -1230.01C505.166 -1111.42 619.553 -994.608 735.672 -876.022C851.791 -757.436 966.177 -640.619 1082.3 -522.033C1198.42 -403.447 1312.8 -286.63 1428.92 -168.044C1545.04 -49.4578 1659.43 67.3586 1775.55 185.945C1891.67 304.531 2006.05 421.348 2064.98 481.526L2122.17 539.934L1789.37 865.815Z" fill="#8BB9E4" fill-opacity="0.6"/>
<path fill-rule="evenodd" clip-rule="evenodd" d="M1696.1 840.54L1583.93 829.248C1470.15 816.079 1245.81 793.494 1157.12 650.838C1068.44 508.183 1118.63 249.211 971.115 157.21C823.6 65.2087 481.608 143.933 334.093 51.9322C186.578 -40.0688 236.772 -299.041 226.522 -509.236C216.272 -719.431 148.81 -877.094 20.9043 -985.98C-107.002 -1094.87 -292.119 -1151.22 -386.294 -1181.27L-478.853 -1209.45L109.426 -1716L162.766 -1654.05C217.723 -1590.23 324.403 -1466.33 432.699 -1340.56C540.996 -1214.79 647.676 -1090.9 755.973 -965.127C864.269 -839.356 970.949 -715.462 1079.25 -589.692C1187.54 -463.921 1294.22 -340.027 1402.52 -214.257C1510.82 -88.4861 1617.5 35.4074 1725.79 161.178C1834.09 286.949 1940.77 410.842 1995.73 474.666L2049.07 536.613L1696.1 840.54Z" fill="#6C31E9" fill-opacity="0.6"/>
<path fill-rule="evenodd" clip-rule="evenodd" d="M1771.16 767.763L1658.54 762.698C1544.2 755.849 1318.96 745.721 1222.51 608.194C1126.06 470.668 1161.84 209.314 1009.45 125.622C857.07 41.9298 519.961 139.469 367.579 55.7771C215.196 -27.915 250.974 -289.269 229.101 -498.574C207.229 -707.879 131.141 -861.565 -2.59731 -963.202C-136.336 -1064.84 -324.289 -1110.86 -419.984 -1135.65L-513.961 -1158.66L45.3686 -1697L102.057 -1638.1C160.463 -1577.42 273.839 -1459.62 388.933 -1340.04C504.027 -1220.46 617.404 -1102.66 732.498 -983.081C847.592 -863.499 960.969 -745.702 1076.06 -626.121C1191.16 -506.539 1304.53 -388.743 1419.63 -269.161C1534.72 -149.579 1648.1 -31.7827 1763.19 87.7987C1878.29 207.38 1991.66 325.177 2050.07 385.86L2106.76 444.759L1771.16 767.763Z" fill="#324C98"/>
</svg>
