<svg width="24" height="24" viewBox="0 0 24 24" fill="none" xmlns="http://www.w3.org/2000/svg">
<path d="M9.54672 5.72725C9.24189 2.22095 5.58397 0.500509 5.42916 0.430287C5.28444 0.362257 5.12226 0.340522 4.96474 0.368044C0.741849 1.06867 0.10666 3.52644 0.0811243 3.62858C0.0463826 3.77091 0.0519082 3.92011 0.0970839 4.05948C5.13391 19.6871 15.6018 22.5837 19.0426 23.5365C19.3076 23.6099 19.5262 23.669 19.6922 23.7232C19.8816 23.7851 20.0874 23.7731 20.2683 23.6897C20.3737 23.6418 22.8602 22.4704 23.4682 18.6497C23.4952 18.4829 23.4684 18.3118 23.3916 18.1613C23.3374 18.056 22.0366 15.5807 18.4298 14.7061C18.3074 14.6748 18.1793 14.6737 18.0564 14.7029C17.9335 14.7321 17.8196 14.7907 17.7244 14.8737C16.5865 15.8456 15.0145 16.8814 14.3362 16.9883C9.78931 14.7651 7.25015 10.4992 7.15439 9.69001C7.09853 9.23516 8.14069 7.63761 9.33925 6.3385C9.41458 6.25674 9.47196 6.16012 9.50769 6.05484C9.54342 5.94957 9.55672 5.83798 9.54672 5.72725Z" fill="#324C98"/>
</svg>
